<svg width="255" height="58" viewBox="0 0 255 58" fill="none" xmlns="http://www.w3.org/2000/svg">
<path d="M0.854187 35.587V15.8881H7.55916C9.89403 15.8881 11.717 16.3404 13.0218 17.2389C14.3328 18.1436 14.9821 19.4883 14.9821 21.2853C14.9821 22.1962 14.7386 23.0079 14.2516 23.7267C13.7647 24.4455 13.0592 24.9846 12.1353 25.344C13.3277 25.5981 14.2204 26.1372 14.8135 26.9675C15.4066 27.7979 15.7063 28.7584 15.7063 29.849C15.7063 31.7327 15.082 33.1579 13.8271 34.1308C12.5723 35.0975 10.7993 35.587 8.50185 35.587H0.854187ZM4.83097 24.1419H7.69026C8.75157 24.1419 9.5694 23.925 10.1438 23.4913C10.7181 23.0575 10.999 22.4255 10.999 21.5951C10.999 20.6842 10.7119 20.015 10.1313 19.5812C9.55691 19.1475 8.69538 18.9306 7.54667 18.9306H4.83097V24.1419ZM4.83097 26.8746V32.5445H8.49561C9.55067 32.5445 10.356 32.3152 10.9054 31.8628C11.461 31.4105 11.7357 30.7351 11.7357 29.8428C11.7357 28.8823 11.4985 28.1449 11.0303 27.6368C10.5558 27.1287 9.81288 26.8746 8.79527 26.8746H4.83097Z" fill="#009FC2"/>
<path d="M24.9584 35.8658C22.8296 35.8658 21.1315 35.1904 19.8641 33.8396C18.5906 32.4887 17.9538 30.7722 17.9538 28.684V28.1449C17.9538 25.9699 18.5531 24.1791 19.758 22.7725C20.9629 21.3658 22.5799 20.6656 24.6026 20.678C26.5941 20.678 28.1361 21.2729 29.2349 22.4626C30.3336 23.6524 30.883 25.2635 30.883 27.2898V29.44H22.0804L22.0554 29.5205C22.1304 30.481 22.455 31.2742 23.0293 31.8938C23.6037 32.5135 24.3903 32.8233 25.383 32.8233C26.2632 32.8233 26.9936 32.7366 27.5742 32.5569C28.1548 32.3834 28.7916 32.1045 29.4846 31.7265L30.5584 34.168C29.9591 34.6575 29.1724 35.0603 28.1985 35.3825C27.2309 35.7109 26.1508 35.8658 24.9584 35.8658ZM24.6088 23.7205C23.8722 23.7205 23.2916 23.9994 22.867 24.5571C22.4425 25.1148 22.1741 25.8522 22.0742 26.7631L22.1179 26.8312H26.9936V26.478C26.9936 25.6415 26.7939 24.9722 26.4006 24.4703C26.001 23.9746 25.4079 23.7205 24.6088 23.7205Z" fill="#009FC2"/>
<path d="M37.9313 17.3629V20.9445H40.4097V23.7206H37.9313V31.1751C37.9313 31.7452 38.0499 32.148 38.2871 32.3896C38.5244 32.6313 38.8428 32.7552 39.2423 32.7552C39.4483 32.7552 39.6294 32.7428 39.7792 32.7242C39.929 32.6995 40.1038 32.6623 40.3036 32.6065L40.647 35.4631C40.2474 35.5995 39.8541 35.6986 39.4733 35.7668C39.0925 35.8349 38.6804 35.8659 38.2309 35.8659C36.8575 35.8659 35.8024 35.4941 35.0657 34.7443C34.3228 33.9945 33.9545 32.811 33.9545 31.1875V23.7206H31.8007V20.9445H33.9545V17.3629H37.9313V17.3629Z" fill="#009FC2"/>
<path d="M46.8338 22.8035C47.2958 22.1342 47.8639 21.6137 48.5381 21.2419C49.2124 20.8701 49.9553 20.678 50.7731 20.678C52.3089 20.678 53.5138 21.1861 54.3941 22.2024C55.2681 23.2186 55.7113 24.7864 55.7113 26.9056V35.587H51.7346V26.856C51.7346 25.7158 51.5348 24.9103 51.129 24.4332C50.7232 23.956 50.1239 23.7205 49.3248 23.7205C48.7816 23.7205 48.3009 23.8197 47.8826 24.0118C47.4644 24.2039 47.121 24.4765 46.8463 24.8297V35.5808H42.8695V14.4814H46.8463V22.8035H46.8338Z" fill="#009FC2"/>
<path d="M65.2319 35.8658C63.1031 35.8658 61.405 35.1904 60.1376 33.8396C58.8641 32.4887 58.2273 30.7722 58.2273 28.684V28.1449C58.2273 25.9699 58.8266 24.1791 60.0315 22.7725C61.2364 21.3658 62.8533 20.6656 64.8761 20.678C66.8676 20.678 68.4096 21.2729 69.5084 22.4626C70.6071 23.6524 71.1565 25.2635 71.1565 27.2898V29.44H62.3539L62.3289 29.5205C62.4039 30.481 62.7285 31.2742 63.3028 31.8938C63.8772 32.5135 64.6638 32.8233 65.6564 32.8233C66.5367 32.8233 67.2671 32.7366 67.8477 32.5569C68.4283 32.3834 69.0651 32.1045 69.7581 31.7265L70.8381 34.168C70.2388 34.6575 69.4522 35.0603 68.4783 35.3825C67.5044 35.7109 66.4181 35.8658 65.2319 35.8658ZM64.8761 23.7205C64.1394 23.7205 63.5588 23.9994 63.1343 24.5571C62.7098 25.1148 62.4413 25.8522 62.3414 26.7631L62.3851 26.8312H67.2609V26.478C67.2609 25.6415 67.0611 24.9722 66.6678 24.4703C66.2745 23.9746 65.6752 23.7205 64.8761 23.7205Z" fill="#009FC2"/>
<path d="M77.6617 35.587H73.6849V14.4814H77.6617V35.587Z" fill="#009FC2"/>
<path d="M99.5059 26.8746H90.4598V35.587H87.7753V15.8881H100.898V17.9825H90.4598V24.774H99.5059V26.8746Z" fill="#009FC2"/>
<path d="M112.591 33.4182C112.129 34.2052 111.53 34.8062 110.806 35.2276C110.075 35.649 109.239 35.8659 108.284 35.8659C106.673 35.8659 105.424 35.3577 104.525 34.3353C103.626 33.3191 103.177 31.7265 103.177 29.5763V20.9507H105.861V29.6073C105.861 31.1688 106.092 32.2409 106.554 32.8295C107.016 33.4182 107.74 33.7094 108.721 33.7094C109.676 33.7094 110.462 33.5174 111.087 33.1332C111.711 32.749 112.179 32.2037 112.498 31.5035V20.9507H115.182V35.587H112.772L112.591 33.4182Z" fill="#009FC2"/>
<path d="M121.487 20.9506L121.681 23.1256C122.174 22.3511 122.786 21.75 123.529 21.3224C124.272 20.8949 125.115 20.678 126.057 20.678C127.649 20.678 128.879 21.1427 129.753 22.066C130.627 22.9893 131.064 24.4207 131.064 26.3479V35.587H128.38V26.3974C128.38 25.1085 128.124 24.1914 127.612 23.6523C127.1 23.1132 126.313 22.8406 125.258 22.8406C124.484 22.8406 123.804 23.0265 123.211 23.3921C122.617 23.7639 122.143 24.2658 121.787 24.9102V35.5808H119.103V20.9506H121.487Z" fill="#009FC2"/>
<path d="M141.072 35.8658C139.018 35.8658 137.388 35.1842 136.171 33.8333C134.954 32.4825 134.354 30.7165 134.354 28.5539V27.959C134.354 25.8769 134.979 24.1419 136.227 22.7601C137.476 21.3782 138.955 20.6842 140.66 20.6842C142.651 20.6842 144.156 21.2791 145.173 22.4688C146.191 23.6586 146.703 25.2449 146.703 27.2278V28.8947H137.139L137.095 28.9628C137.12 30.3633 137.482 31.5158 138.169 32.4205C138.862 33.3252 139.829 33.7776 141.072 33.7776C141.983 33.7776 142.776 33.6474 143.463 33.3934C144.149 33.1393 144.743 32.7799 145.242 32.3338L146.291 34.0688C145.766 34.5831 145.067 35.0169 144.206 35.3639C143.344 35.6985 142.295 35.8658 141.072 35.8658ZM140.66 22.7725C139.761 22.7725 138.993 23.1504 138.356 23.9002C137.719 24.65 137.332 25.5919 137.182 26.7259L137.207 26.794H144.006V26.4408C144.006 25.3998 143.725 24.5261 143.163 23.8259C142.607 23.1257 141.771 22.7725 140.66 22.7725Z" fill="#009FC2"/>
<path d="M156.692 23.3053L155.312 23.2248C154.607 23.2248 154.007 23.3921 153.52 23.7267C153.033 24.0613 152.659 24.5323 152.397 25.1333V35.587H149.712V20.9506H152.109L152.365 23.0884C152.784 22.3325 153.302 21.7376 153.914 21.3162C154.525 20.8949 155.231 20.678 156.03 20.678C156.23 20.678 156.423 20.6966 156.604 20.7276C156.785 20.7585 156.935 20.7957 157.054 20.8267L156.692 23.3053Z" fill="#009FC2"/>
<path d="M168.341 35.587C168.247 35.1471 168.179 34.7567 168.129 34.4159C168.079 34.0751 168.048 33.7343 168.041 33.3935C167.542 34.0999 166.893 34.6823 166.087 35.1595C165.282 35.6304 164.421 35.8721 163.49 35.8721C161.955 35.8721 160.787 35.4817 159.982 34.7009C159.176 33.9202 158.777 32.8482 158.777 31.4725C158.777 30.0721 159.345 28.9815 160.487 28.1945C161.63 27.4076 163.172 27.011 165.126 27.011H168.041V25.561C168.041 24.7058 167.779 24.0242 167.249 23.5223C166.724 23.0204 165.975 22.7725 165.014 22.7725C164.152 22.7725 163.447 22.9894 162.91 23.4294C162.367 23.8693 162.098 24.3898 162.098 25.0033H159.539L159.514 24.9227C159.457 23.8569 159.963 22.8841 161.031 21.9979C162.098 21.1118 163.478 20.6719 165.17 20.6719C166.843 20.6719 168.185 21.0932 169.203 21.936C170.22 22.7787 170.726 23.9932 170.726 25.5796V32.6251C170.726 33.1456 170.751 33.6537 170.807 34.1432C170.863 34.6328 170.963 35.1099 171.107 35.5747H168.341V35.587ZM163.884 33.6227C164.858 33.6227 165.732 33.3749 166.512 32.8791C167.292 32.3834 167.804 31.8195 168.035 31.1813V28.808H165.026C163.946 28.808 163.078 29.0806 162.429 29.6197C161.78 30.1588 161.455 30.7909 161.455 31.5221C161.455 32.1665 161.661 32.6808 162.067 33.0588C162.473 33.4368 163.085 33.6227 163.884 33.6227Z" fill="#009FC2"/>
<path d="M177.525 35.587H174.84V14.4814H177.525V35.587Z" fill="#009FC2"/>
<path d="M190.229 31.6893C190.229 31.1006 190.004 30.6235 189.555 30.2393C189.105 29.8613 188.256 29.5329 187.001 29.254C185.21 28.8699 183.861 28.3432 182.962 27.6801C182.057 27.0171 181.607 26.1186 181.607 24.9722C181.607 23.7825 182.113 22.7724 183.131 21.9359C184.148 21.0993 185.472 20.678 187.107 20.678C188.824 20.678 190.192 21.1179 191.203 21.9917C192.214 22.8654 192.701 23.9312 192.657 25.1829L192.633 25.2635H190.073C190.073 24.6252 189.804 24.0489 189.261 23.5408C188.718 23.0327 188.006 22.7786 187.114 22.7786C186.159 22.7786 185.453 22.9893 184.985 23.3983C184.523 23.8134 184.292 24.3154 184.292 24.8979C184.292 25.4741 184.498 25.9327 184.904 26.2611C185.316 26.5957 186.146 26.8932 187.395 27.1534C189.255 27.55 190.641 28.0891 191.552 28.7707C192.464 29.4523 192.913 30.3632 192.913 31.5096C192.913 32.8109 192.383 33.8581 191.328 34.6637C190.273 35.4692 188.887 35.8658 187.176 35.8658C185.297 35.8658 183.817 35.3949 182.731 34.4468C181.651 33.4987 181.139 32.3957 181.189 31.1316L181.214 31.0511H183.774C183.817 31.9929 184.173 32.6808 184.835 33.1145C185.497 33.5483 186.277 33.7652 187.164 33.7652C188.119 33.7652 188.868 33.5731 189.405 33.1889C189.954 32.8171 190.229 32.309 190.229 31.6893Z" fill="#009FC2"/>
<path d="M213.334 32.2471C213.334 32.2471 216.718 34.0317 219.159 31.3238C219.159 31.3238 216.144 29.2666 213.278 31.7948C213.278 31.7948 212.916 32.0674 213.334 32.2471Z" fill="#009FC2"/>
<path d="M239.586 10.2058C239.524 10.212 239.486 10.2182 239.486 10.2182C239.486 10.2182 239.243 10.4475 239.586 10.2058Z" fill="#4BBCD6"/>
<path d="M254.732 10.4847C251.81 8.93553 240.722 10.0819 239.586 10.2058C239.236 10.4537 239.486 10.2182 239.486 10.2182C239.486 10.2182 239.53 10.212 239.586 10.2058C239.63 10.1748 239.673 10.1439 239.73 10.1005C240.292 9.68531 245.586 8.6195 245.586 8.6195L245.448 8.19813C244.705 8.54514 242.795 8.68766 242.795 8.68766C243.794 7.5289 246.122 7.25006 246.122 7.25006C248.913 6.48788 250.742 4.96352 250.742 4.96352C252.172 5.22377 252.896 4.70946 252.896 4.70946C254.457 0.966722 245.717 6.0851 245.717 6.0851C243.22 8.55753 237.488 10.3669 237.488 10.3669C233.175 11.5753 225.695 15.5039 225.695 15.5039C224.74 14.8347 230.159 12.6287 230.159 12.6287C234.242 9.53659 236.009 2.46629 236.009 2.46629C236.995 -2.429 235.01 1.45625 235.01 1.45625C231.539 8.90454 223.604 16.359 223.604 16.359C221.706 17.2761 215.444 21.9298 215.444 21.9298C215.906 19.2714 218.959 16.3033 218.959 16.3033C222.262 11.0486 222.88 8.19813 222.88 8.19813C224.066 2.84429 222.193 5.41587 222.193 5.41587C221.494 6.10369 219.365 9.48082 219.365 9.48082C217.598 11.5195 214.477 22.5618 214.477 22.5618C213.141 24.5447 207.36 30.2704 207.36 30.2704C206.573 30.2766 208.39 27.1969 208.39 27.1969C214.333 19.1971 215.856 13.0253 215.856 13.0253C216.112 7.18189 212.985 12.4118 212.985 12.4118C208.927 19.321 206.492 31.0697 206.492 31.0697C206.211 31.6212 204.344 33.9263 204.344 33.9263C203.377 35.3082 198.982 43.4195 198.982 43.4195L198.663 44.3056C198.12 48.0236 193.75 50.5084 193.75 50.5084C194.043 51.2024 194.68 50.5394 194.68 50.5394C195.142 50.0498 197.552 48.2838 197.552 48.2838C198.27 46.9887 202.827 44.1817 202.827 44.1817V43.4877L204.525 42.3289L204.282 41.7526C200.486 45.074 199.806 45.2413 199.806 45.2413C198.794 42.6697 205.243 34.5212 205.243 34.5212C228.542 33.6165 230.303 30.8033 230.303 30.8033C214.926 25.6353 205.668 33.6847 205.668 33.6847C203.889 34.1556 210.456 27.736 210.456 27.736C210.406 27.3084 212.385 27.0729 212.385 27.0729C221.731 27.6926 230.652 24.1171 230.652 24.1171C233.293 23.5409 231.551 22.8778 231.551 22.8778C222.281 20.6842 211.649 26.8127 211.649 26.8127C211.48 26.1372 216.574 21.9731 216.574 21.9731C220.133 18.8563 224.004 18.311 224.004 18.311C225.596 18.4659 235.665 20.046 235.665 20.046C241.059 20.5293 242.839 17.8896 242.839 17.8896L243.419 17.6479L243.657 17.4496C240.036 15.7084 225.652 17.5054 225.652 17.5054C222.399 18.0693 224.428 16.7866 224.428 16.7866C224.634 16.328 227.806 15.0825 227.806 15.0825C229.51 12.5357 235.041 14.9152 235.041 14.9152C238.837 15.9377 244.836 16.3528 244.836 16.3528C249.949 15.9996 245.96 14.0477 245.96 14.0477C239.873 12.1701 231.189 13.3785 231.189 13.3785L231.92 12.9447C237.57 9.75347 242.196 11.1105 242.196 11.1105C246.859 12.8146 252.927 11.6558 252.927 11.6558C256.011 11.631 254.732 10.4847 254.732 10.4847ZM212.716 31.5159C215.669 28.6345 219.484 30.7103 219.484 30.7103L220.414 29.6817L221.581 29.5454L220.07 31.2246L221.937 32.5011L220.77 32.6374L219.621 31.8505C216.162 34.9116 212.854 32.656 212.854 32.656C211.873 32.1913 212.716 31.5159 212.716 31.5159Z" fill="#009FC2"/>
<path d="M218.766 12.9695C218.959 14.5745 217.804 16.0307 216.187 16.2228C214.564 16.4148 213.097 15.2685 212.904 13.6636C212.71 12.0586 213.865 10.5963 215.482 10.4042C217.105 10.2183 218.572 11.3646 218.766 12.9695Z" fill="#FFE512"/>
<path d="M216.949 11.16C217.336 11.5256 217.598 12.0214 217.667 12.5852C217.823 13.8989 216.88 15.1011 215.544 15.2622C215.07 15.3179 214.602 15.225 214.196 15.0329C214.708 15.5286 215.419 15.8013 216.175 15.7145C217.505 15.5534 218.454 14.3575 218.297 13.0376C218.198 12.1887 217.667 11.507 216.949 11.16Z" fill="#4BBCD6"/>
<path d="M218.104 18.0817C218.297 19.6928 217.149 21.149 215.526 21.3411C213.902 21.5332 212.435 20.3868 212.242 18.7819C212.048 17.177 213.197 15.7146 214.82 15.5225C216.437 15.3304 217.904 16.4768 218.104 18.0817Z" fill="#FFE512"/>
<path d="M216.287 16.2722C216.668 16.644 216.937 17.1335 217.005 17.6974C217.168 19.0173 216.219 20.2132 214.889 20.3744C214.408 20.4301 213.94 20.3434 213.54 20.1451C214.046 20.6346 214.758 20.9135 215.519 20.8205C216.849 20.6594 217.798 19.4635 217.636 18.1436C217.53 17.307 216.999 16.6192 216.287 16.2722Z" fill="#4BBCD6"/>
<path d="M221.188 19.9717C221.381 21.5766 220.227 23.039 218.61 23.2311C216.986 23.4232 215.519 22.2768 215.326 20.6719C215.132 19.067 216.287 17.6046 217.904 17.4125C219.521 17.2204 220.994 18.3668 221.188 19.9717Z" fill="#FFE512"/>
<path d="M219.371 18.1622C219.752 18.534 220.021 19.0236 220.089 19.5874C220.252 20.9073 219.303 22.1033 217.967 22.2644C217.492 22.3201 217.024 22.2334 216.624 22.0351C217.13 22.5308 217.842 22.8035 218.603 22.7105C219.933 22.5494 220.876 21.3535 220.72 20.0398C220.614 19.1909 220.083 18.5092 219.371 18.1622Z" fill="#4BBCD6"/>
<path d="M224.809 16.1794C225.002 17.7843 223.847 19.2467 222.231 19.4388C220.614 19.6308 219.14 18.4845 218.947 16.8796C218.753 15.2747 219.908 13.8185 221.525 13.6264C223.148 13.4343 224.615 14.5806 224.809 16.1794Z" fill="#FFE512"/>
<path d="M222.992 14.3761C223.373 14.7479 223.635 15.2312 223.704 15.8013C223.866 17.1212 222.924 18.3233 221.588 18.4782C221.107 18.534 220.645 18.4473 220.239 18.249C220.745 18.7447 221.456 19.0173 222.218 18.9244C223.548 18.7633 224.491 17.5673 224.334 16.2475C224.235 15.4047 223.704 14.7231 222.992 14.3761Z" fill="#4BBCD6"/>
<path d="M224.472 11.4203C224.665 13.0252 223.51 14.4814 221.893 14.6797C220.276 14.8718 218.803 13.7254 218.61 12.1205C218.416 10.5094 219.571 9.0532 221.188 8.8611C222.805 8.66901 224.272 9.81538 224.472 11.4203Z" fill="#FFE512"/>
<path d="M222.649 9.61096C223.03 9.98276 223.298 10.4661 223.367 11.03C223.529 12.3499 222.58 13.552 221.244 13.7069C220.763 13.7627 220.301 13.6759 219.896 13.4776C220.401 13.9672 221.113 14.2398 221.875 14.1531C223.204 13.9919 224.147 12.8022 223.991 11.4823C223.897 10.6396 223.367 9.95797 222.649 9.61096Z" fill="#4BBCD6"/>
<path d="M227.974 8.11133C228.168 9.71624 227.013 11.1786 225.396 11.3707C223.779 11.5628 222.312 10.4165 222.112 8.81154C221.918 7.20663 223.073 5.74424 224.69 5.55214C226.307 5.36005 227.781 6.50642 227.974 8.11133Z" fill="#FFE512"/>
<path d="M226.157 6.302C226.538 6.6738 226.807 7.16333 226.875 7.72722C227.038 9.04089 226.089 10.243 224.753 10.4041C224.272 10.4599 223.81 10.367 223.404 10.1749C223.91 10.6644 224.622 10.9432 225.383 10.8503C226.713 10.6892 227.662 9.49324 227.5 8.17337C227.4 7.33063 226.869 6.64901 226.157 6.302Z" fill="#4BBCD6"/>
<path d="M231.277 4.53598C231.47 6.1409 230.315 7.59709 228.692 7.79538C227.075 7.98748 225.602 6.84111 225.408 5.23619C225.215 3.62508 226.37 2.16889 227.987 1.9706C229.604 1.7785 231.077 2.92487 231.277 4.53598Z" fill="#FFE512"/>
<path d="M229.454 2.72656C229.828 3.09836 230.103 3.58789 230.172 4.15178C230.334 5.47165 229.385 6.66759 228.055 6.8287C227.575 6.88447 227.113 6.79152 226.707 6.59943C227.219 7.08896 227.924 7.3616 228.686 7.27485C230.016 7.11374 230.965 5.9178 230.802 4.60413C230.702 3.76139 230.165 3.07357 229.454 2.72656Z" fill="#4BBCD6"/>
<path d="M230.009 10.9928C230.203 12.5667 229.067 13.9981 227.481 14.1902C225.895 14.3823 224.453 13.2545 224.26 11.6806C224.066 10.1067 225.202 8.67525 226.788 8.48315C228.38 8.29726 229.822 9.41884 230.009 10.9928Z" fill="#FFE512"/>
<path d="M228.23 9.22058C228.605 9.57998 228.867 10.0633 228.936 10.6148C229.092 11.9099 228.161 13.0811 226.857 13.2422C226.388 13.2979 225.933 13.2112 225.539 13.0191C226.039 13.5024 226.738 13.7689 227.475 13.6821C228.779 13.5272 229.71 12.3499 229.554 11.061C229.454 10.2306 228.936 9.56139 228.23 9.22058Z" fill="#4BBCD6"/>
<path d="M231.514 7.51645C231.707 9.12136 230.559 10.5838 228.935 10.7758C227.319 10.9679 225.845 9.82157 225.652 8.21666C225.458 6.61175 226.613 5.14935 228.23 4.95726C229.853 4.75897 231.32 5.91153 231.514 7.51645Z" fill="#FFE512"/>
<path d="M229.697 5.70715C230.078 6.07895 230.346 6.56228 230.415 7.13237C230.577 8.45224 229.629 9.64818 228.299 9.80929C227.818 9.86506 227.356 9.77211 226.95 9.58002C227.456 10.0695 228.168 10.3484 228.929 10.2554C230.259 10.0943 231.208 8.89839 231.046 7.57852C230.946 6.73579 230.415 6.05416 229.697 5.70715Z" fill="#4BBCD6"/>
<path d="M227.181 17.462C227.375 19.0731 226.22 20.5293 224.603 20.7214C222.986 20.9135 221.519 19.7672 221.319 18.1561C221.126 16.5511 222.281 15.0949 223.898 14.9028C225.514 14.7108 226.988 15.8571 227.181 17.462Z" fill="#FFE512"/>
<path d="M225.365 15.6526C225.745 16.0244 226.014 16.5139 226.082 17.0778C226.245 18.3977 225.296 19.5936 223.966 19.7547C223.485 19.8105 223.023 19.7237 222.618 19.5254C223.13 20.0212 223.835 20.2938 224.597 20.2009C225.926 20.0398 226.875 18.8438 226.713 17.5302C226.607 16.6874 226.076 15.9996 225.365 15.6526Z" fill="#4BBCD6"/>
<path d="M229.616 15.9005C229.81 17.5054 228.655 18.9678 227.038 19.1599C225.414 19.352 223.947 18.2056 223.754 16.6007C223.56 14.9958 224.715 13.5334 226.332 13.3413C227.949 13.1492 229.422 14.2956 229.616 15.9005Z" fill="#FFE512"/>
<path d="M227.799 14.0911C228.18 14.4567 228.449 14.9462 228.517 15.5163C228.68 16.8362 227.731 18.0321 226.401 18.1932C225.92 18.249 225.458 18.156 225.052 17.9639C225.558 18.4597 226.27 18.7323 227.025 18.6456C228.355 18.4844 229.304 17.2885 229.142 15.9686C229.042 15.1259 228.511 14.4381 227.799 14.0911Z" fill="#4BBCD6"/>
<path d="M225.995 21.1366C226.189 22.7415 225.034 24.2039 223.417 24.396C221.8 24.5881 220.326 23.4417 220.133 21.8368C219.939 20.2319 221.094 18.7695 222.711 18.5774C224.328 18.3853 225.795 19.5317 225.995 21.1366Z" fill="#FFE512"/>
<path d="M224.172 19.3271C224.553 19.6989 224.821 20.1885 224.89 20.7524C225.052 22.0722 224.097 23.2682 222.774 23.4293C222.293 23.4851 221.831 23.3921 221.425 23.2C221.931 23.6957 222.636 23.9684 223.398 23.8754C224.728 23.7143 225.677 22.5184 225.514 21.1985C225.421 20.3558 224.89 19.6742 224.172 19.3271Z" fill="#4BBCD6"/>
<path d="M3.85702 56.4137C2.35246 56.4137 1.37231 55.0629 1.37231 53.2721C1.37231 51.4565 2.40241 50.1118 3.88824 50.1118C4.73104 50.1118 5.36158 50.4278 5.84854 51.0909L5.3054 51.4999C4.91209 50.9669 4.53751 50.7315 3.86951 50.7315C2.81444 50.7315 2.05904 51.7725 2.05904 53.2535C2.05904 54.7469 2.83942 55.7941 3.87575 55.7941C4.54375 55.7941 4.99949 55.4966 5.39904 54.9947L5.86727 55.4037C5.41777 56.0048 4.74977 56.4137 3.85702 56.4137Z" fill="#9D9FA2"/>
<path d="M12.1726 56.4137C11.0489 56.4137 10.1874 55.5834 10.1874 54.0342C10.1874 52.4789 11.0864 51.6423 12.2101 51.6423C13.3338 51.6423 14.1954 52.4417 14.1954 53.997C14.1954 55.5524 13.3026 56.4137 12.1726 56.4137ZM12.1914 52.2124C11.3923 52.2124 10.8554 52.8135 10.8554 54.0156C10.8554 55.2178 11.3923 55.8498 12.1914 55.8498C12.9905 55.8498 13.5336 55.224 13.5336 54.0156C13.5399 52.8135 12.9905 52.2124 12.1914 52.2124Z" fill="#9D9FA2"/>
<path d="M24.2841 56.3208V53.6438C24.2841 52.5966 23.9594 52.2124 23.2914 52.2124C22.6671 52.2124 22.2613 52.6338 22.2613 53.6438V56.3208H21.5996V53.6438C21.5996 52.5966 21.25 52.2124 20.607 52.2124C19.9764 52.2124 19.5769 52.6338 19.5769 53.6438V56.3208H18.9151V51.7415H19.5769V52.2992C19.8141 51.9088 20.2012 51.6423 20.7443 51.6423C21.3936 51.6423 21.7931 51.9893 22.0116 52.4293C22.2863 51.9955 22.6609 51.6423 23.4101 51.6423C24.3527 51.6423 24.9396 52.1938 24.9396 53.5261V56.3208H24.2841V56.3208Z" fill="#9D9FA2"/>
<path d="M31.8444 56.4137C31.2638 56.4137 30.8705 56.172 30.5458 55.8002V57.6344L29.8841 58V51.7415H30.5458V52.2992C30.8705 51.9522 31.3137 51.6423 31.9318 51.6423C32.8558 51.6423 33.5862 52.3426 33.5862 53.9537C33.5862 55.5772 32.8121 56.4137 31.8444 56.4137ZM31.7632 52.2124C31.27 52.2124 30.8642 52.4727 30.5396 52.8755V55.162C30.7956 55.5462 31.2451 55.8498 31.7882 55.8498C32.5498 55.8498 32.9307 55.193 32.9307 53.9661C32.9369 52.8135 32.4937 52.2124 31.7632 52.2124Z" fill="#9D9FA2"/>
<path d="M40.8841 56.3208V55.7631C40.5595 56.1101 40.1037 56.4199 39.442 56.4199C38.724 56.4199 37.9624 56.0605 37.9624 54.9513C37.9624 53.9227 38.8177 53.4889 39.7292 53.4889C40.1974 53.4889 40.6094 53.6005 40.8779 53.7492V53.2101C40.8779 52.5285 40.5532 52.2001 39.8728 52.2001C39.392 52.2001 38.9925 52.3302 38.6179 52.5471L38.3744 52.0142C38.7802 51.7973 39.3234 51.6486 39.9227 51.6486C40.9153 51.6486 41.5396 52.0699 41.5396 53.1295V56.3208H40.8841ZM40.8841 54.2697C40.5845 54.1024 40.2598 54.0095 39.698 54.0095C39.0237 54.0095 38.6179 54.3317 38.6179 54.908C38.6179 55.5896 38.9987 55.887 39.5606 55.887C40.1599 55.887 40.6094 55.5834 40.8904 55.1992V54.2697H40.8841Z" fill="#9D9FA2"/>
<path d="M47.764 56.4137C47.1334 56.4137 46.5778 56.1782 46.1408 55.8312L46.5279 55.3541C46.8962 55.6763 47.327 55.8622 47.7827 55.8622C48.4133 55.8622 48.7129 55.602 48.7129 55.1558C48.7129 54.7778 48.4382 54.5733 47.6204 54.2201C46.6964 53.8297 46.3094 53.5509 46.3094 52.8135C46.3094 52.1133 46.9149 51.6423 47.7515 51.6423C48.382 51.6423 48.8752 51.8406 49.2311 52.1319L48.8628 52.609C48.5007 52.3302 48.201 52.2 47.714 52.2C47.2333 52.2 46.9524 52.4355 46.9524 52.7639C46.9524 53.1481 47.1896 53.303 47.97 53.6562C48.8378 54.0466 49.3497 54.3007 49.3497 55.1248C49.3435 56.0233 48.5631 56.4137 47.764 56.4137Z" fill="#9D9FA2"/>
<path d="M55.293 56.4137C54.6624 56.4137 54.1068 56.1782 53.6698 55.8312L54.0569 55.3541C54.4252 55.6763 54.856 55.8622 55.3117 55.8622C55.9422 55.8622 56.2419 55.602 56.2419 55.1558C56.2419 54.7778 55.9672 54.5733 55.1494 54.2201C54.2254 53.8297 53.8384 53.5509 53.8384 52.8135C53.8384 52.1133 54.4439 51.6423 55.2805 51.6423C55.911 51.6423 56.4042 51.8406 56.7601 52.1319L56.3917 52.609C56.0297 52.3302 55.73 52.2 55.243 52.2C54.7623 52.2 54.4814 52.4355 54.4814 52.7639C54.4814 53.1481 54.7186 53.303 55.499 53.6562C56.3668 54.0466 56.8787 54.3007 56.8787 55.1248C56.8725 56.0233 56.0921 56.4137 55.293 56.4137Z" fill="#9D9FA2"/>
<path d="M62.0167 50.9174C61.742 50.9174 61.536 50.7067 61.536 50.4526C61.536 50.1924 61.7483 49.9817 62.0167 49.9817C62.2602 49.9817 62.4725 50.1924 62.4725 50.4526C62.4787 50.7067 62.2664 50.9174 62.0167 50.9174ZM61.6796 56.3208V51.7415H62.3414V56.3208H61.6796Z" fill="#9D9FA2"/>
<path d="M69.09 56.4137C67.9663 56.4137 67.1047 55.5834 67.1047 54.0342C67.1047 52.4789 68.0037 51.6423 69.1275 51.6423C70.2512 51.6423 71.1127 52.4417 71.1127 53.997C71.1127 55.5524 70.22 56.4137 69.09 56.4137ZM69.1087 52.2124C68.3096 52.2124 67.7727 52.8135 67.7727 54.0156C67.7727 55.2178 68.3096 55.8498 69.1087 55.8498C69.9078 55.8498 70.451 55.224 70.451 54.0156C70.4572 52.8135 69.9078 52.2124 69.1087 52.2124Z" fill="#9D9FA2"/>
<path d="M78.7292 56.3208V53.6438C78.7292 52.6586 78.3796 52.2124 77.6367 52.2124C76.9937 52.2124 76.4942 52.64 76.4942 53.6438V56.3208H75.8325V51.7415H76.4942V52.2992C76.7564 51.915 77.1872 51.6423 77.7678 51.6423C78.7417 51.6423 79.3847 52.2062 79.3847 53.5261V56.3208H78.7292V56.3208Z" fill="#9D9FA2"/>
<path d="M90.4535 56.4137C90.1476 56.4137 89.8917 56.1596 89.8917 55.856C89.8917 55.5524 90.1476 55.2797 90.4535 55.2797C90.7532 55.2797 91.0154 55.5524 91.0154 55.856C91.0154 56.1596 90.7532 56.4137 90.4535 56.4137Z" fill="#9D9FA2"/>
<path d="M103.807 53.9227H102.315V56.3208H101.628V50.2172H103.932C105.05 50.2172 105.892 50.7996 105.892 52.039C105.892 53.2473 105.037 53.9227 103.807 53.9227ZM103.907 50.8306H102.315V53.2969H103.82C104.762 53.2969 105.206 52.8693 105.206 52.0575C105.206 51.2768 104.75 50.8306 103.907 50.8306Z" fill="#9D9FA2"/>
<path d="M113.834 54.2511H110.756C110.818 55.2302 111.28 55.8498 112.036 55.8498C112.572 55.8498 112.891 55.6949 113.309 55.4161L113.615 55.887C113.059 56.234 112.66 56.4199 111.961 56.4199C111.118 56.4199 110.088 55.8064 110.088 54.0094C110.088 52.5532 110.893 51.6423 111.992 51.6423C113.197 51.6423 113.846 52.5842 113.846 53.8917C113.859 54.0528 113.852 54.1458 113.834 54.2511ZM111.998 52.2124C111.311 52.2124 110.837 52.7019 110.762 53.7244H113.247C113.191 52.8321 112.803 52.2124 111.998 52.2124Z" fill="#9D9FA2"/>
<path d="M121.188 56.3208V55.7631C120.863 56.1101 120.407 56.4199 119.746 56.4199C119.028 56.4199 118.266 56.0605 118.266 54.9513C118.266 53.9227 119.121 53.4889 120.033 53.4889C120.501 53.4889 120.913 53.6005 121.182 53.7492V53.2101C121.182 52.5285 120.857 52.2001 120.176 52.2001C119.696 52.2001 119.296 52.3302 118.922 52.5471L118.678 52.0142C119.084 51.7973 119.627 51.6486 120.226 51.6486C121.219 51.6486 121.843 52.0699 121.843 53.1295V56.3208H121.188ZM121.188 54.2697C120.888 54.1024 120.563 54.0095 120.002 54.0095C119.327 54.0095 118.922 54.3317 118.922 54.908C118.922 55.5896 119.302 55.887 119.864 55.887C120.464 55.887 120.913 55.5834 121.194 55.1992V54.2697H121.188Z" fill="#9D9FA2"/>
<path d="M129.591 52.6711C129.254 52.3736 128.948 52.2063 128.486 52.2063C127.768 52.2063 127.212 52.8508 127.212 53.9971C127.212 55.1249 127.693 55.8437 128.511 55.8437C128.96 55.8437 129.26 55.6578 129.572 55.3542L129.965 55.7755C129.578 56.1659 129.129 56.4138 128.48 56.4138C127.468 56.4138 126.538 55.6454 126.538 54.0467C126.538 52.355 127.556 51.6362 128.523 51.6362C129.148 51.6362 129.622 51.8655 129.984 52.1753L129.591 52.6711Z" fill="#9D9FA2"/>
<path d="M137.994 54.2511H134.916C134.978 55.2302 135.44 55.8498 136.196 55.8498C136.733 55.8498 137.051 55.6949 137.469 55.4161L137.775 55.887C137.22 56.234 136.82 56.4199 136.121 56.4199C135.278 56.4199 134.248 55.8064 134.248 54.0094C134.248 52.5532 135.053 51.6423 136.152 51.6423C137.357 51.6423 138.006 52.5842 138.006 53.8917C138.019 54.0528 138.013 54.1458 137.994 54.2511ZM136.152 52.2124C135.465 52.2124 134.991 52.7019 134.916 53.7244H137.401C137.351 52.8321 136.964 52.2124 136.152 52.2124Z" fill="#9D9FA2"/>
<path d="M148.882 56.4137C148.576 56.4137 148.32 56.1596 148.32 55.856C148.32 55.5524 148.576 55.2797 148.882 55.2797C149.181 55.2797 149.444 55.5524 149.444 55.856C149.444 56.1596 149.181 56.4137 148.882 56.4137Z" fill="#9D9FA2"/>
<path d="M163.802 56.3208V53.4394H160.743V56.3208H160.057V50.2172H160.743V52.8259H163.802V50.2172H164.489V56.3208H163.802Z" fill="#9D9FA2"/>
<path d="M171.275 56.4137C170.152 56.4137 169.29 55.5834 169.29 54.0342C169.29 52.4789 170.189 51.6423 171.313 51.6423C172.437 51.6423 173.298 52.4417 173.298 53.997C173.298 55.5524 172.399 56.4137 171.275 56.4137ZM171.294 52.2124C170.495 52.2124 169.958 52.8135 169.958 54.0156C169.958 55.2178 170.495 55.8498 171.294 55.8498C172.093 55.8498 172.636 55.224 172.636 54.0156C172.636 52.8135 172.093 52.2124 171.294 52.2124Z" fill="#9D9FA2"/>
<path d="M179.984 56.4137C179.404 56.4137 179.01 56.172 178.686 55.8002V57.6344L178.024 58V51.7415H178.686V52.2992C179.01 51.9522 179.454 51.6423 180.072 51.6423C180.996 51.6423 181.726 52.3426 181.726 53.9537C181.726 55.5772 180.952 56.4137 179.984 56.4137ZM179.903 52.2124C179.41 52.2124 179.004 52.4727 178.679 52.8755V55.162C178.935 55.5462 179.385 55.8498 179.928 55.8498C180.69 55.8498 181.071 55.193 181.071 53.9661C181.071 52.8135 180.634 52.2124 179.903 52.2124Z" fill="#9D9FA2"/>
<path d="M189.936 54.2511H186.858C186.92 55.2302 187.382 55.8498 188.138 55.8498C188.674 55.8498 188.993 55.6949 189.411 55.4161L189.717 55.887C189.161 56.234 188.762 56.4199 188.063 56.4199C187.22 56.4199 186.19 55.8064 186.19 54.0094C186.19 52.5532 186.995 51.6423 188.094 51.6423C189.299 51.6423 189.948 52.5842 189.948 53.8917C189.961 54.0528 189.954 54.1458 189.936 54.2511ZM188.1 52.2124C187.413 52.2124 186.939 52.7019 186.864 53.7244H189.349C189.293 52.8321 188.912 52.2124 188.1 52.2124Z" fill="#9D9FA2"/>
<path d="M0 50H80.4097" stroke="#9D9FA2" stroke-width="0.3638" stroke-miterlimit="10"/>
<path d="M116.662 43.6797H194.793" stroke="#9D9FA2" stroke-width="0.3638" stroke-miterlimit="10"/>
<path d="M86.6703 46.146C87.1573 46.177 88.999 46.4496 91.5461 45.5449C91.9332 45.4086 92.3202 45.2723 92.7073 45.1422C95.3169 44.2622 97.889 43.2646 100.53 42.4714C102.652 41.8332 104.819 41.4304 107.047 41.542C108.452 41.6163 109.813 41.8766 111.018 42.6635C111.205 42.7875 111.355 42.9548 111.524 43.0973C111.536 43.1655 111.517 43.2026 111.443 43.1717C110.431 42.3041 109.214 42.0563 107.934 42.0191C105.755 41.9571 103.639 42.3165 101.566 42.9734C98.8192 43.8409 96.116 44.8199 93.3566 45.6627C91.8957 46.1088 90.4161 46.493 88.8803 46.5364C88.1249 46.555 87.3883 46.4311 86.6641 46.2142C86.6453 46.1956 86.6391 46.1832 86.6453 46.1708C86.6578 46.1522 86.6641 46.146 86.6703 46.146Z" fill="#9D9FA2"/>
<path d="M90.2413 47.6889C91.9019 48.1413 93.5376 47.6269 95.1108 47.156C97.0586 46.5735 98.919 45.7432 100.836 45.0554C102.546 44.4419 104.282 43.909 106.098 43.7417C107.203 43.6425 108.284 43.8036 109.27 44.3613C109.276 44.4357 109.257 44.4791 109.17 44.4481C107.191 43.7727 105.312 44.256 103.445 44.919C100.861 45.8361 98.2885 46.7904 95.6852 47.6579C93.9996 48.2218 92.2515 48.4201 90.516 47.85C90.3786 47.8004 90.1664 47.6517 90.2413 47.6889Z" fill="#9D9FA2"/>
<path d="M88.8054 46.5364C87.1948 46.5364 85.5653 46.1026 84.8287 44.5782C84.3979 43.6921 84.2918 42.8804 84.5103 42.174C84.6851 41.6163 85.0659 41.1391 85.5841 40.8293C86.1896 40.4637 86.8576 40.4079 87.0699 40.693L87.0075 40.7363C86.8389 40.5071 86.2396 40.5195 85.6215 40.8913C84.1919 41.7464 84.3042 43.3451 84.8911 44.5472C86.3145 47.4844 91.1216 46.2947 92.5575 45.8547L92.5825 45.9291C91.8707 46.1398 90.3475 46.5364 88.8054 46.5364Z" fill="#9D9FA2"/>
<path d="M91.0966 47.9864C89.6669 47.7571 88.4121 46.6851 88.0437 45.3714C87.7253 44.2188 88.1436 43.0849 89.2299 42.1864C89.9791 41.5667 90.7657 41.2879 91.571 41.3622C92.9257 41.4862 93.8559 42.5953 93.8622 42.6077L93.806 42.6573C93.7998 42.6449 92.882 41.5605 91.5648 41.4428C90.7844 41.3684 90.0165 41.6411 89.2798 42.2483C88.2185 43.1282 87.8065 44.2312 88.1186 45.3528C88.4745 46.6417 89.7044 47.6951 91.109 47.9182L91.0966 47.9864Z" fill="#9D9FA2"/>
<path d="M108.589 48.5627C106.692 48.5627 105.462 47.1437 105.443 47.1251L105.499 47.0755C105.518 47.1003 107.459 49.3372 110.225 48.1289C111.811 47.4349 112.285 46.4868 112.404 45.8114C112.56 44.9253 112.217 43.9214 111.436 43.1716L111.517 43.0973C112.317 43.8595 112.641 44.9129 112.479 45.8238C112.354 46.5178 111.867 47.4907 110.256 48.1971C109.663 48.4573 109.101 48.5627 108.589 48.5627Z" fill="#9D9FA2"/>
</svg>
